<svg xmlns="http://www.w3.org/2000/svg">
    <defs>
        <!-- Icons go here -->
        <symbol id="icon-coffee" viewBox="0 0 18 18">
            <g id="Page-1" stroke="none" stroke-width="1" fill="none" fill-rule="evenodd">
                <g id="Dribbble-Light-Preview" transform="translate(-421.000000, -5120.000000)" fill="#000000">
                    <g id="icons" transform="translate(56.000000, 160.000000)">
                        <path d="M367.028169,4964.99989 C367.587944,4964.99989 368.042254,4964.5519 368.042254,4963.99991 L368.042254,4960.99998 C368.042254,4960.44799 367.587944,4960 367.028169,4960 C366.468394,4960 366.014085,4960.44799 366.014085,4960.99998 L366.014085,4963.99991 C366.014085,4964.5519 366.468394,4964.99989 367.028169,4964.99989 L367.028169,4964.99989 Z M379.197183,4968.99981 L377.169014,4968.99981 L377.169014,4971.99974 L379.197183,4971.99974 C381.563042,4971.99974 381.563042,4968.99981 379.197183,4968.99981 L379.197183,4968.99981 Z M375.140845,4968.99981 L368.042254,4968.99981 C367.482479,4968.99981 367.028169,4969.4478 367.028169,4969.99978 L367.028169,4971.82775 C367.028169,4973.9167 368.576676,4975.78266 370.685972,4975.98066 C373.105577,4976.20865 375.140845,4974.33869 375.140845,4971.99974 L375.140845,4968.99981 Z M379.197183,4973.9997 L376.815099,4973.9997 C375.903437,4976.53864 373.316507,4978.29561 370.359437,4977.95861 C367.25938,4977.60462 365,4974.86768 365,4971.78975 L365,4968.99981 C365,4967.89483 365.907606,4966.99985 367.028169,4966.99985 L377.169014,4966.99985 L379.197183,4966.99985 C384.267606,4966.99985 384.267606,4973.9997 379.197183,4973.9997 L379.197183,4973.9997 Z M375.140845,4964.99989 C375.70062,4964.99989 376.15493,4964.5519 376.15493,4963.99991 L376.15493,4960.99998 C376.15493,4960.44799 375.70062,4960 375.140845,4960 C374.58107,4960 374.126761,4960.44799 374.126761,4960.99998 L374.126761,4963.99991 C374.126761,4964.5519 374.58107,4964.99989 375.140845,4964.99989 L375.140845,4964.99989 Z M370.070423,4963.99991 L370.070423,4960.99998 C370.070423,4960.44799 370.524732,4960 371.084507,4960 C371.644282,4960 372.098592,4960.44799 372.098592,4960.99998 L372.098592,4963.99991 C372.098592,4964.5519 371.644282,4964.99989 371.084507,4964.99989 C370.524732,4964.99989 370.070423,4964.5519 370.070423,4963.99991 L370.070423,4963.99991 Z" id="coffee-[#689]">

                        </path>
                    </g>
                </g>
            </g>
        </symbol>
        <symbol id="icon-pot" viewBox="0 0 256 256">
            <path d="M252.7998,102.3999,224,124v60a32.03667,32.03667,0,0,1-32,32H64a32.03667,32.03667,0,0,1-32-32V124L3.2002,102.3999a7.9998,7.9998,0,0,1,9.5996-12.7998L32,104V88A16.01833,16.01833,0,0,1,48,72H208a16.01833,16.01833,0,0,1,16,16v16l19.2002-14.3999a7.9998,7.9998,0,0,1,9.5996,12.7998ZM160,56a8.00039,8.00039,0,0,0,8-8V16a8,8,0,0,0-16,0V48A8.00039,8.00039,0,0,0,160,56Zm-32,0a8.00039,8.00039,0,0,0,8-8V16a8,8,0,0,0-16,0V48A8.00039,8.00039,0,0,0,128,56ZM96,56a8.00039,8.00039,0,0,0,8-8V16a8,8,0,0,0-16,0V48A8.00039,8.00039,0,0,0,96,56Z"/>
        </symbol>
        <symbol id="icon-drink" viewBox="-2 0 20 20">
            <g id="Page-1" stroke="none" stroke-width="1" fill="none" fill-rule="evenodd">
                <g id="Dribbble-Light-Preview" transform="translate(-62.000000, -5159.000000)" fill="#000000">
                    <g id="icons" transform="translate(56.000000, 160.000000)">
                        <path d="M15.426,5017 L12.573,5017 C12.08,5017 11.66,5016.64 11.585,5016.152 L11.408,5015 L16.592,5015 L16.414,5016.152 C16.339,5016.64 15.92,5017 15.426,5017 L15.426,5017 Z M17.668,5008 L16.899,5013 L11.1,5013 L10.331,5008 L17.668,5008 Z M21,5006 L15,5006 L15,5002 C15,5001.448 15.447,5001 16,5001 L18,5001 C18.552,5001 19,5000.552 19,5000 C19,4999.448 18.552,4999 18,4999 L15,4999 C13.895,4999 13,4999.895 13,5001 L13,5006 L7,5006 C6.447,5006 6,5006.448 6,5007 C6,5007.552 6.447,5008 7,5008 L8.307,5008 L9.739,5017.304 C9.889,5018.28 10.728,5019 11.716,5019 L16.284,5019 C17.271,5019 18.111,5018.28 18.261,5017.304 L19.692,5008 L21,5008 C21.552,5008 22,5007.552 22,5007 C22,5006.448 21.552,5006 21,5006 L21,5006 Z" id="drink_round-[#688]">

                        </path>
                    </g>
                </g>
            </g>
        </symbol>
        <symbol id="icon-glass" viewBox="-4 0 20 20">
            <g id="Page-1" stroke="none" stroke-width="1" fill="none" fill-rule="evenodd">
                <g id="Dribbble-Light-Preview" transform="translate(-304.000000, -5159.000000)" fill="#000000">
                    <g id="icons" transform="translate(56.000000, 160.000000)">
                        <path d="M258,5006 C258,5008.339 255.993,5010.209 253.607,5009.981 C251.527,5009.783 250,5007.917 250,5005.828 L250,5002 C250,5001.448 250.448,5001 251,5001 L257,5001 C257.552,5001 258,5001.448 258,5002 L258,5006 Z M250,4999 C248.895,4999 248,4999.895 248,5001 L248,5006 C248,5008.972 250,5011.433 253,5011.91 L253,5017 L252,5017 C251.448,5017 251,5017.448 251,5018 C251,5018.552 251.448,5019 252,5019 L256,5019 C256.552,5019 257,5018.552 257,5018 C257,5017.448 256.552,5017 256,5017 L255,5017 L255,5011.91 C258,5011.433 260,5008.972 260,5006 L260,5001 C260,4999.895 259.105,4999 258,4999 L250,4999 Z" id="drink_round-[#682]">

                        </path>
                    </g>
                </g>
            </g>
        </symbol>
        <symbol id="icon-fork-knife" viewBox="0 0 24 24">
            <path d="M8 21V3M15 21V3C17.2091 3 19 4.79086 19 7V9C19 11.2091 17.2091 13 15 13M11 3V8C11 9.65685 9.65685 11 8 11C6.34315 11 5 9.65685 5 8V3" stroke="#000000" stroke-width="2" stroke-linecap="round" stroke-linejoin="round"/>
        </symbol>
        <symbol id="icon-knife" viewBox="0 0 256 256">
            <path d="M234.627,29.37207a32.03555,32.03555,0,0,0-45.2539,0c-.03516.03418-.06934.06934-.10352.10352L15.41211,207.61914a11.9994,11.9994,0,0,0,5.88965,20.07324,159.19354,159.19354,0,0,0,35.88281,4.11035c34.207-.001,68.416-11.10253,100.5459-32.86816,32.292-21.875,51.085-46.68945,51.86914-47.73437a12.00045,12.00045,0,0,0-1.11426-15.68555l-15.99707-15.99707,42.28906-45.04A32.038,32.038,0,0,0,234.627,29.37207ZM143.66309,179.47461c-30.92676,20.78711-62.69434,30.19824-94.69727,28.126l97.62891-100.03614,20.37695,20.377q.28125.30468.58984.59375l.04981.04687,16.10742,16.10742A222.21934,222.21934,0,0,1,143.66309,179.47461ZM217.65723,57.6582c-.08985.08887-.17676.17871-.2627.27051l-41.88476,44.61035L163.3584,90.3877l43.02344-44.084A8.001,8.001,0,0,1,217.65723,57.6582Z"/>
        </symbol>
        <symbol id="icon-wheat" viewBox="0 0 24 24">
            <path class="cls-1" d="M9.17,3.55h1.89a3.78,3.78,0,0,1,3.78,3.78V9.22a0,0,0,0,1,0,0H12.94A3.78,3.78,0,0,1,9.17,5.44V3.55A0,0,0,0,1,9.17,3.55Z" transform="translate(8.03 -6.62) rotate(45)"/>
            <path class="cls-1" d="M12,8.27h1.89A3.78,3.78,0,0,1,17.66,12v1.89a0,0,0,0,1,0,0H15.78A3.78,3.78,0,0,1,12,10.16V8.27A0,0,0,0,1,12,8.27Z" transform="translate(25.94 -3.73) rotate(90)"/>
            <path class="cls-1" d="M6.34,8.27H8.22A3.78,3.78,0,0,1,12,12v1.89a0,0,0,0,1,0,0H10.11a3.78,3.78,0,0,1-3.78-3.78V8.27A0,0,0,0,1,6.34,8.27Z"/>
            <path class="cls-1" d="M12,13.94h1.89a3.78,3.78,0,0,1,3.78,3.78V19.6a0,0,0,0,1,0,0H15.78A3.78,3.78,0,0,1,12,15.83V13.94A0,0,0,0,1,12,13.94Z" transform="translate(31.6 1.94) rotate(90)"/>
            <path class="cls-1" d="M6.34,13.94H8.22A3.78,3.78,0,0,1,12,17.71V19.6a0,0,0,0,1,0,0H10.11a3.78,3.78,0,0,1-3.78-3.78V13.94A0,0,0,0,1,6.34,13.94Z"/>
            <line class="cls-1" x1="12" y1="23.38" x2="12" y2="10.16"/>
        </symbol>
    </defs>
</svg>